<svg width="378" height="281" xmlns="http://www.w3.org/2000/svg" xmlns:xlink="http://www.w3.org/1999/xlink" xml:space="preserve" overflow="hidden"><defs><clipPath id="clip0"><rect x="112" y="0" width="378" height="281"/></clipPath></defs><g clip-path="url(#clip0)" transform="translate(-112 0)"><path d="M0 0 374.667 0 374.667 281 0 281Z" fill="#FFFFFF" transform="matrix(1.0089 0 0 1 112 0)"/><path d="M0 0 374.667 0 374.667 281 0 281Z" fill="#FFFFFF" transform="matrix(1.0089 0 0 1 112 0)"/><path d="M48.8405 250.224 339.207 250.224 339.207 20.7405 48.8405 20.7405Z" fill="#FFFFFF" transform="matrix(1.0089 0 0 1 112 0)"/><path d="M48.8405 250.224 339.207 250.224" stroke="#262626" stroke-width="0.892041" stroke-linecap="square" stroke-linejoin="round" stroke-miterlimit="10" fill="none" transform="matrix(1.0089 0 0 1 112 0)"/><path d="M48.8405 20.7405 339.207 20.7405" stroke="#262626" stroke-width="0.892041" stroke-linecap="square" stroke-linejoin="round" stroke-miterlimit="10" fill="none" transform="matrix(1.0089 0 0 1 112 0)"/><path d="M48.8405 250.224 48.8405 248.191" stroke="#262626" stroke-width="0.892041" stroke-linecap="square" stroke-linejoin="round" stroke-miterlimit="10" fill="none" transform="matrix(1.0089 0 0 1 112 0)"/><path d="M90.3214 250.224 90.3214 248.191" stroke="#262626" stroke-width="0.892041" stroke-linecap="square" stroke-linejoin="round" stroke-miterlimit="10" fill="none" transform="matrix(1.0089 0 0 1 112 0)"/><path d="M173.283 250.224 173.283 248.191" stroke="#262626" stroke-width="0.892041" stroke-linecap="square" stroke-linejoin="round" stroke-miterlimit="10" fill="none" transform="matrix(1.0089 0 0 1 112 0)"/><path d="M256.245 250.224 256.245 248.191" stroke="#262626" stroke-width="0.892041" stroke-linecap="square" stroke-linejoin="round" stroke-miterlimit="10" fill="none" transform="matrix(1.0089 0 0 1 112 0)"/><path d="M339.207 250.224 339.207 248.191" stroke="#262626" stroke-width="0.892041" stroke-linecap="square" stroke-linejoin="round" stroke-miterlimit="10" fill="none" transform="matrix(1.0089 0 0 1 112 0)"/><path d="M48.8405 20.7405 48.8405 22.773" stroke="#262626" stroke-width="0.892041" stroke-linecap="square" stroke-linejoin="round" stroke-miterlimit="10" fill="none" transform="matrix(1.0089 0 0 1 112 0)"/><path d="M90.3214 20.7405 90.3214 22.773" stroke="#262626" stroke-width="0.892041" stroke-linecap="square" stroke-linejoin="round" stroke-miterlimit="10" fill="none" transform="matrix(1.0089 0 0 1 112 0)"/><path d="M173.283 20.7405 173.283 22.773" stroke="#262626" stroke-width="0.892041" stroke-linecap="square" stroke-linejoin="round" stroke-miterlimit="10" fill="none" transform="matrix(1.0089 0 0 1 112 0)"/><path d="M256.245 20.7405 256.245 22.773" stroke="#262626" stroke-width="0.892041" stroke-linecap="square" stroke-linejoin="round" stroke-miterlimit="10" fill="none" transform="matrix(1.0089 0 0 1 112 0)"/><path d="M339.207 20.7405 339.207 22.773" stroke="#262626" stroke-width="0.892041" stroke-linecap="square" stroke-linejoin="round" stroke-miterlimit="10" fill="none" transform="matrix(1.0089 0 0 1 112 0)"/><path d="M-13.4646 9.76395C-13.4646 8.57217-13.3426 7.6139-13.0987 6.88912-12.8547 6.16432-12.4923 5.60503-12.0115 5.21128-11.5306 4.81748-10.9243 4.62058-10.1925 4.62058-9.64894 4.62058-9.17324 4.72861-8.76559 4.94466-8.35788 5.16072-8.02161 5.47435-7.7568 5.88554-7.49193 6.29674-7.28459 6.79505-7.13479 7.3804-6.98492 7.96588-6.90999 8.76038-6.90999 9.76395-6.90999 10.9417-7.03022 11.8931-7.27067 12.6178-7.51106 13.3426-7.87349 13.9019-8.35788 14.2957-8.8422 14.6894-9.45378 14.8863-10.1925 14.8863-11.1613 14.8863-11.9209 14.5413-12.4714 13.8514-13.1335 13.015-13.4646 11.6526-13.4646 9.76395ZM-12.1997 9.76395C-12.1997 11.4087-12.0063 12.5046-11.6195 13.0516-11.2327 13.5987-10.757 13.8723-10.1925 13.8723-9.62104 13.8723-9.14187 13.5987-8.75509 13.0516-8.36831 12.5046-8.17496 11.4087-8.17496 9.76395-8.17496 8.10524-8.36831 7.00406-8.75509 6.46046-9.14187 5.91688-9.62452 5.64509-10.203 5.64509-10.7675 5.64509-11.2205 5.88552-11.5619 6.36639-11.9871 6.9797-12.1997 8.1122-12.1997 9.76395ZM-4.84444 14.719-4.84444 13.3078-3.43315 13.3078-3.43315 14.719-4.84444 14.719ZM4.91911 13.5273 4.91911 14.719-1.72955 14.719C-1.74347 14.4194-1.69818 14.1336-1.59367 13.8619-1.4194 13.4089-1.14586 12.9628-0.773018 12.5238-0.400179 12.0847 0.138203 11.5759 0.84213 10.9975 1.93629 10.1054 2.67503 9.39631 3.05835 8.8701 3.44163 8.34389 3.63326 7.84733 3.63326 7.3804 3.63326 6.8926 3.4573 6.4814 3.10538 6.14687 2.75342 5.81235 2.29867 5.64509 1.74113 5.64509 1.1418 5.64509 0.664409 5.82281 0.308966 6.17825-0.0464765 6.53365-0.227677 7.02848-0.234635 7.66267L-1.49954 7.52679C-1.41591 6.57897-1.0901 5.85765-0.522125 5.36282 0.045852 4.86799 0.807253 4.62058 1.76207 4.62058 2.73076 4.62058 3.49564 4.88891 4.0567 5.42557 4.61772 5.9622 4.89823 6.62426 4.89823 7.41178 4.89823 7.81601 4.81634 8.21156 4.65256 8.59833 4.48877 8.98511 4.21522 9.39457 3.8319 9.82664 3.44859 10.2587 2.8144 10.8476 1.92933 11.5933 1.19057 12.2206 0.714924 12.644 0.502388 12.8635 0.289809 13.083 0.117306 13.3043-0.0151205 13.5273L4.91911 13.5273ZM6.35749 12.0847 7.65377 11.9697C7.75132 12.6039 7.97431 13.0795 8.32282 13.3966 8.67126 13.7137 9.09289 13.8723 9.58772 13.8723 10.1801 13.8723 10.6819 13.6493 11.0931 13.2033 11.5043 12.7572 11.7099 12.1613 11.7099 11.4156 11.7099 10.7117 11.513 10.1559 11.1192 9.74822 10.7255 9.34051 10.208 9.13665 9.56684 9.13665 9.16957 9.13665 8.81062 9.22724 8.49008 9.40848 8.16947 9.58973 7.91858 9.82664 7.7374 10.1193L6.57701 9.96252 7.5492 4.79834 12.5462 4.79834 12.5462 5.97961 8.5319 5.97961 7.99873 8.67674C8.59813 8.25852 9.22884 8.04945 9.89087 8.04945 10.769 8.04945 11.5112 8.35433 12.1176 8.96417 12.7239 9.574 13.027 10.3563 13.027 11.3111 13.027 12.2171 12.7622 13.0046 12.2325 13.6737 11.5844 14.4821 10.7028 14.8863 9.58772 14.8863 8.67474 14.8863 7.92902 14.6302 7.35063 14.118 6.77217 13.6057 6.44112 12.9279 6.35749 12.0847Z" fill="#262626" transform="matrix(1.0089 0 0 1 161.275 254.862)"/><path d="M-9.4503 9.76395C-9.4503 8.57217-9.32833 7.6139-9.0844 6.88912-8.84046 6.16432-8.47804 5.60503-7.99719 5.21128-7.51635 4.81748-6.90999 4.62058-6.17825 4.62058-5.63463 4.62058-5.15898 4.72861-4.75131 4.94466-4.34359 5.16072-4.00733 5.47435-3.74252 5.88554-3.47766 6.29674-3.27032 6.79505-3.12051 7.3804-2.97064 7.96588-2.8957 8.76038-2.8957 9.76395-2.8957 10.9417-3.01593 11.8931-3.25639 12.6178-3.4968 13.3426-3.8592 13.9019-4.34359 14.2957-4.82793 14.6894-5.43949 14.8863-6.17825 14.8863-7.14697 14.8863-7.9066 14.5413-8.45716 13.8514-9.11925 13.015-9.4503 11.6526-9.4503 9.76395ZM-8.1854 9.76395C-8.1854 11.4087-7.99197 12.5046-7.6052 13.0516-7.21842 13.5987-6.74273 13.8723-6.17825 13.8723-5.60675 13.8723-5.1276 13.5987-4.7408 13.0516-4.35405 12.5046-4.16067 11.4087-4.16067 9.76395-4.16067 8.10524-4.35405 7.00406-4.7408 6.46046-5.1276 5.91688-5.61023 5.64509-6.18869 5.64509-6.75317 5.64509-7.20618 5.88552-7.54766 6.36639-7.97284 6.9797-8.1854 8.1122-8.1854 9.76395ZM-0.830154 14.719-0.830154 13.3078 0.581135 13.3078 0.581135 14.719-0.830154 14.719ZM2.44156 12.0847 3.73784 11.9697C3.83538 12.6039 4.0584 13.0795 4.40688 13.3966 4.75532 13.7137 5.17696 13.8723 5.67178 13.8723 6.26416 13.8723 6.76594 13.6493 7.17714 13.2033 7.58834 12.7572 7.79394 12.1613 7.79394 11.4156 7.79394 10.7117 7.59703 10.1559 7.2033 9.74822 6.80957 9.34051 6.29208 9.13665 5.65091 9.13665 5.25363 9.13665 4.89471 9.22724 4.57414 9.40848 4.25354 9.58973 4.00264 9.82664 3.82147 10.1193L2.66107 9.96252 3.63326 4.79834 8.63025 4.79834 8.63025 5.97961 4.61596 5.97961 4.0828 8.67674C4.68218 8.25852 5.31289 8.04945 5.97493 8.04945 6.85305 8.04945 7.5953 8.35433 8.20165 8.96417 8.80794 9.574 9.11109 10.3563 9.11109 11.3111 9.11109 12.2171 8.84628 13.0046 8.3166 13.6737 7.66849 14.4821 6.78689 14.8863 5.67178 14.8863 4.7588 14.8863 4.0131 14.6302 3.43469 14.118 2.85623 13.6057 2.52519 12.9279 2.44156 12.0847Z" fill="#262626" transform="matrix(1.0089 0 0 1 203.125 254.862)"/><path d="M1.22309 14.719-0.0104371 14.719-0.0104371 6.8473C-0.310126 7.13305-0.702145 7.417-1.18649 7.69927-1.67088 7.98154-2.10474 8.19583-2.48805 8.34222L-2.48805 7.14001C-1.79809 6.8194-1.19349 6.42739-0.674266 5.96396-0.155085 5.50049 0.212534 5.05269 0.428592 4.62058L1.22309 4.62058 1.22309 14.719Z" fill="#262626" transform="matrix(1.0089 0 0 1 286.825 254.862)"/><path d="M-4.79834 14.719-6.03187 14.719-6.03187 6.8473C-6.33155 7.13305-6.72359 7.417-7.20792 7.69927-7.69231 7.98154-8.12619 8.19583-8.50948 8.34222L-8.50948 7.14001C-7.81949 6.8194-7.21494 6.42739-6.69569 5.96396-6.17651 5.50049-5.80889 5.05269-5.59284 4.62058L-4.79834 4.62058-4.79834 14.719ZM-0.830154 14.719-0.830154 13.3078 0.581135 13.3078 0.581135 14.719-0.830154 14.719ZM2.44156 12.0847 3.73784 11.9697C3.83538 12.6039 4.0584 13.0795 4.40688 13.3966 4.75532 13.7137 5.17696 13.8723 5.67178 13.8723 6.26416 13.8723 6.76594 13.6493 7.17714 13.2033 7.58834 12.7572 7.79394 12.1613 7.79394 11.4156 7.79394 10.7117 7.59703 10.1559 7.2033 9.74822 6.80957 9.34051 6.29208 9.13665 5.65091 9.13665 5.25363 9.13665 4.89471 9.22724 4.57414 9.40848 4.25354 9.58973 4.00264 9.82664 3.82147 10.1193L2.66107 9.96252 3.63326 4.79834 8.63025 4.79834 8.63025 5.97961 4.61596 5.97961 4.0828 8.67674C4.68218 8.25852 5.31289 8.04945 5.97493 8.04945 6.85305 8.04945 7.5953 8.35433 8.20165 8.96417 8.80794 9.574 9.11109 10.3563 9.11109 11.3111 9.11109 12.2171 8.84628 13.0046 8.3166 13.6737 7.66849 14.4821 6.78689 14.8863 5.67178 14.8863 4.7588 14.8863 4.0131 14.6302 3.43469 14.118 2.85623 13.6057 2.52519 12.9279 2.44156 12.0847Z" fill="#262626" transform="matrix(1.0089 0 0 1 370.525 254.862)"/><path d="M3.06297 13.5273 3.06297 14.719-3.58569 14.719C-3.59961 14.4194-3.5543 14.1336-3.44974 13.8619-3.27552 13.4089-3.002 12.9628-2.62916 12.5238-2.25632 12.0847-1.71793 11.5759-1.01401 10.9975 0.0801519 10.1054 0.818894 9.39631 1.20221 8.8701 1.58549 8.34389 1.77712 7.84733 1.77712 7.3804 1.77712 6.8926 1.60116 6.4814 1.24925 6.14687 0.89728 5.81235 0.44253 5.64509-0.115009 5.64509-0.714342 5.64509-1.19173 5.82281-1.54717 6.17825-1.90262 6.53365-2.08382 7.02848-2.09077 7.66267L-3.35568 7.52679C-3.27204 6.57897-2.94624 5.85765-2.37826 5.36282-1.81024 4.86799-1.04885 4.62058-0.0940681 4.62058 0.874626 4.62058 1.6395 4.88891 2.20056 5.42557 2.76158 5.9622 3.04209 6.62426 3.04209 7.41178 3.04209 7.81601 2.9602 8.21156 2.79642 8.59833 2.63264 8.98511 2.35908 9.39457 1.97576 9.82664 1.59249 10.2587 0.958297 10.8476 0.0731938 11.5933-0.665569 12.2206-1.14121 12.644-1.35375 12.8635-1.56633 13.083-1.73883 13.3043-1.87126 13.5273L3.06297 13.5273Z" fill="#262626" transform="matrix(1.0089 0 0 1 454.225 254.862)"/><path d="M48.8405 250.224 48.8405 20.7405" stroke="#262626" stroke-width="0.892041" stroke-linecap="square" stroke-linejoin="round" stroke-miterlimit="10" fill="none" transform="matrix(1.0089 0 0 1 112 0)"/><path d="M339.207 250.224 339.207 20.7405" stroke="#262626" stroke-width="0.892041" stroke-linecap="square" stroke-linejoin="round" stroke-miterlimit="10" fill="none" transform="matrix(1.0089 0 0 1 112 0)"/><path d="M48.8405 250.224 50.873 250.224" stroke="#262626" stroke-width="0.892041" stroke-linecap="square" stroke-linejoin="round" stroke-miterlimit="10" fill="none" transform="matrix(1.0089 0 0 1 112 0)"/><path d="M48.8405 173.73 50.873 173.73" stroke="#262626" stroke-width="0.892041" stroke-linecap="square" stroke-linejoin="round" stroke-miterlimit="10" fill="none" transform="matrix(1.0089 0 0 1 112 0)"/><path d="M48.8405 97.2347 50.873 97.2347" stroke="#262626" stroke-width="0.892041" stroke-linecap="square" stroke-linejoin="round" stroke-miterlimit="10" fill="none" transform="matrix(1.0089 0 0 1 112 0)"/><path d="M48.8405 20.7405 50.873 20.7405" stroke="#262626" stroke-width="0.892041" stroke-linecap="square" stroke-linejoin="round" stroke-miterlimit="10" fill="none" transform="matrix(1.0089 0 0 1 112 0)"/><path d="M339.207 250.224 337.175 250.224" stroke="#262626" stroke-width="0.892041" stroke-linecap="square" stroke-linejoin="round" stroke-miterlimit="10" fill="none" transform="matrix(1.0089 0 0 1 112 0)"/><path d="M339.207 173.73 337.175 173.73" stroke="#262626" stroke-width="0.892041" stroke-linecap="square" stroke-linejoin="round" stroke-miterlimit="10" fill="none" transform="matrix(1.0089 0 0 1 112 0)"/><path d="M339.207 97.2347 337.175 97.2347" stroke="#262626" stroke-width="0.892041" stroke-linecap="square" stroke-linejoin="round" stroke-miterlimit="10" fill="none" transform="matrix(1.0089 0 0 1 112 0)"/><path d="M339.207 20.7405 337.175 20.7405" stroke="#262626" stroke-width="0.892041" stroke-linecap="square" stroke-linejoin="round" stroke-miterlimit="10" fill="none" transform="matrix(1.0089 0 0 1 112 0)"/><path d="M-0.951319 4.4952-0.951319 5.6869-7.59998 5.6869C-7.6139 5.38722-7.5686 5.10149-7.46403 4.82972-7.28981 4.37669-7.0163 3.93065-6.64344 3.49163-6.2706 3.05255-5.73222 2.54379-5.02829 1.96533-3.93413 1.07327-3.19539 0.364141-2.81207-0.162043-2.4288-0.688229-2.23716-1.1848-2.23716-1.65174-2.23716-2.13957-2.41312-2.55074-2.76504-2.88527-3.11701-3.21979-3.57176-3.38705-4.12929-3.38705-4.72863-3.38705-5.20601-3.20933-5.56146-2.85389-5.9169-2.49849-6.0981-2.00368-6.10506-1.36947L-7.36996-1.50536C-7.28633-2.45318-6.9605-3.1745-6.39255-3.66932-5.82453-4.16415-5.06313-4.41157-4.10835-4.41157-3.13966-4.41157-2.37478-4.14323-1.81372-3.60657-1.2527-3.06995-0.972193-2.40788-0.972193-1.62037-0.972193-1.21613-1.05408-0.820607-1.21787-0.43381-1.38165-0.0470118-1.6552 0.362423-2.03852 0.794494-2.4218 1.22657-3.05599 1.81546-3.94109 2.56118-4.67985 3.18843-5.1555 3.61183-5.36804 3.83137-5.58061 4.0509-5.75312 4.27218-5.88554 4.4952L-0.951319 4.4952Z" fill="#262626" transform="matrix(1.0089 0 0 1 156.595 250.224)"/><path d="M-3.49163 5.6869-3.49163 3.28248-7.85087 3.28248-7.85087 2.14303-3.26161-4.36968-2.2476-4.36968-2.2476 2.14303-0.888562 2.14303-0.888562 3.28248-2.2476 3.28248-2.2476 5.6869-3.49163 5.6869ZM-3.49163 2.14303-3.49163-2.38348-6.63822 2.14303-3.49163 2.14303Z" fill="#262626" transform="matrix(1.0089 0 0 1 156.595 173.73)"/><path d="M-1.03495-1.90264-2.26847-1.8085C-2.37302-2.29637-2.52634-2.64831-2.72844-2.86433-3.06297-3.21977-3.47416-3.39749-3.96203-3.39749-4.35927-3.39749-4.70773-3.28598-5.00742-3.06297-5.39074-2.78419-5.69565-2.37302-5.92214-1.82944-6.14863-1.28582-6.26536-0.508744-6.27232 0.501786-5.97263 0.0487958-5.60849-0.287468-5.1799-0.507004-4.75126-0.726539-4.30002-0.836309-3.82615-0.836309-3.00376-0.836309-2.30333-0.533142-1.72487 0.0731938-1.14641 0.679532-0.857184 1.46356-0.857184 2.4253-0.857184 3.05251-0.993087 3.63793-1.2649 4.18155-1.53672 4.72517-1.91132 5.13984-2.3887 5.42557-2.86609 5.71131-3.40447 5.85417-4.00385 5.85417-5.0353 5.85417-5.87509 5.47609-6.52321 4.71993-7.17132 3.96377-7.49541 2.71803-7.49541 0.982697-7.49541-0.961736-7.13653-2.3765-6.41871-3.26161-5.79841-4.02825-4.95512-4.41157-3.88884-4.41157-3.10132-4.41157-2.45494-4.19029-1.94967-3.74774-1.44436-3.30518-1.13945-2.69015-1.03495-1.90264ZM-6.08418 2.4253C-6.08418 2.85041-5.99358 3.25811-5.81235 3.64838-5.63113 4.03866-5.37849 4.33485-5.05445 4.53695-4.73037 4.73909-4.38713 4.84016-4.02472 4.84016-3.50902 4.84016-3.06299 4.63108-2.68663 4.21293-2.31031 3.79477-2.12215 3.22329-2.12215 2.49849-2.12215 1.80156-2.30683 1.25272-2.67619 0.851965-3.04555 0.451251-3.5125 0.250893-4.07704 0.250893-4.63458 0.250893-5.10849 0.451251-5.49877 0.851965-5.88904 1.25272-6.08418 1.77717-6.08418 2.4253Z" fill="#262626" transform="matrix(1.0089 0 0 1 156.595 97.2347)"/><path d="M-5.54052 0.230019C-6.05627 0.0418378-6.43784-0.224755-6.68526-0.569761-6.93267-0.914722-7.05638-1.33114-7.05638-1.81901-7.05638-2.55076-6.79331-3.1658-6.2671-3.66411-5.74092-4.16241-5.04226-4.41157-4.17111-4.41157-3.29297-4.41157-2.58558-4.15717-2.04896-3.64838-1.51234-3.13964-1.24403-2.51939-1.24403-1.78763-1.24403-1.32068-1.36597-0.914722-1.60986-0.569761-1.8538-0.224755-2.22666 0.0418378-2.72844 0.230019-2.10819 0.432116-1.63778 0.757917-1.31722 1.20743-0.996613 1.65694-0.836309 2.19182-0.836309 2.81207-0.836309 3.6693-1.13947 4.39062-1.74581 4.97604-2.35215 5.56146-3.1536 5.85417-4.15017 5.85417-5.13982 5.85417-5.93956 5.56146-6.54937 4.97604-7.15914 4.39062-7.46403 3.65884-7.46403 2.7807-7.46403 2.12561-7.29677 1.57679-6.96224 1.13424-6.62772 0.691682-6.15381 0.390278-5.54052 0.230019ZM-5.79141-1.86076C-5.79141-1.38689-5.63811-0.998373-5.33151-0.695207-5.02482-0.39204-4.62755-0.240456-4.13973-0.240456-3.66583-0.240456-3.27554-0.390278-2.9689-0.689922-2.66225-0.989608-2.50893-1.35551-2.50893-1.78763-2.50893-2.24062-2.66573-2.62218-2.97934-2.9323-3.29294-3.24243-3.68322-3.39749-4.15017-3.39749-4.62408-3.39749-5.0161-3.2459-5.32622-2.94274-5.63634-2.63961-5.79141-2.27896-5.79141-1.86076ZM-6.18869 2.7807C-6.18869 3.13614-6.10506 3.47764-5.9378 3.80521-5.77054 4.13277-5.52312 4.38715-5.19556 4.56832-4.86799 4.74955-4.51257 4.84016-4.12929 4.84016-3.54388 4.84016-3.05777 4.65024-2.67097 4.2704-2.28418 3.89056-2.09077 3.40795-2.09077 2.82258-2.09077 2.23016-2.28939 1.73881-2.68663 1.34853-3.08386 0.958257-3.57869 0.763116-4.17111 0.763116-4.75653 0.763116-5.23913 0.956517-5.61893 1.34331-5.99877 1.73011-6.18869 2.20924-6.18869 2.7807Z" fill="#262626" transform="matrix(1.0089 0 0 1 156.595 20.7405)"/><path d="M48.8405 210.114 90.3214 191.196 131.802 171.937 173.283 153.076 214.764 132.195 256.245 111.667 297.726 89.9682 339.207 69.2591" stroke="#0072BD" stroke-width="1.78415" stroke-linejoin="round" stroke-miterlimit="10" fill="none" fill-rule="evenodd" transform="matrix(1.0089 0 0 1 112 0)"/><path d="M63.119 250.251 77.3974 250.251 91.6756 250.251 105.954 250.251 120.233 250.251 134.511 250.251 148.789 250.251 198.776 250.251 236.742 250.251 266.139 250.251 290.288 250.251 309.708 250.251 325.809 250.251 339.207 250.251 339.207 69.2591 297.726 89.9682 256.245 111.667 214.764 132.195 173.283 153.076 131.802 171.937 90.3214 191.196 48.8405 210.114 48.8405 250.251Z" fill="#0000FF" fill-opacity="0.6" transform="matrix(1.0089 0 0 1 112 0)"/><path d="M339.207 250.251 339.207 69.2591 297.726 89.9682 256.245 111.667 214.764 132.195 173.283 153.076 131.802 171.937 90.3214 191.196 48.8405 210.114 48.8405 250.251" stroke="#000000" stroke-width="0.446054" stroke-linecap="square" stroke-miterlimit="10" fill="none" fill-rule="evenodd" transform="matrix(1.0089 0 0 1 112 0)"/><path d="M90.3214 191.196 131.802 171.937 173.283 153.076 214.764 132.195 256.245 111.667 297.726 89.9682 339.207 69.2591 339.207 20.7405 297.726 20.7405 256.245 20.7405 214.764 20.7405 173.283 20.7405 131.802 20.7405 90.3214 20.7405 48.8405 20.7405 48.8405 210.114Z" fill="#FF0000" fill-opacity="0.502" transform="matrix(1.0089 0 0 1 112 0)"/><path d="M48.8405 20.7405 90.3214 20.7405 131.802 20.7405 173.283 20.7405 214.764 20.7405 256.245 20.7405 297.726 20.7405 339.207 20.7405 339.207 69.2591 297.726 89.9682 256.245 111.667 214.764 132.195 173.283 153.076 131.802 171.937 90.3214 191.196 48.8405 210.114 48.8405 20.7405" stroke="#000000" stroke-width="0.446054" stroke-linecap="square" stroke-miterlimit="10" fill="none" fill-rule="evenodd" transform="matrix(1.0089 0 0 1 112 0)"/><path d="M-5.11708 13.6656C-5.62582 13.6656-6.07707 13.5454-6.47083 13.305-6.86456 13.0646-7.16777 12.7405-7.38033 12.3328-7.59289 11.9251-7.6992 11.4634-7.6992 10.9476-7.6992 10.2228-7.49708 9.50503-7.09284 8.79416-6.68865 8.0833-6.15027 7.50484-5.47769 7.05879-4.80517 6.61275-4.10302 6.38974-3.37126 6.38974-2.82768 6.38974-2.34856 6.53263-1.93388 6.8184-1.51921 7.10415-1.20558 7.48397-0.993 7.95785-0.780464 8.43174-0.674199 8.937-0.674199 9.47365L-0.653258 10.5504C-0.290857 10.0417 0.017529 9.51372 0.271901 8.96664 0.526273 8.41956 0.723153 7.85328 0.862536 7.26786 0.883457 7.20517 0.925273 7.1738 0.987983 7.1738L1.17619 7.1738C1.27373 7.1738 1.32251 7.22257 1.32251 7.32018 1.32251 7.3341 1.31555 7.35149 1.30163 7.37244 1.17617 7.86024 1.01934 8.33071 0.831158 8.78373 0.643022 9.23674 0.423507 9.67577 0.172614 10.1009-0.0782786 10.526-0.35357 10.9093-0.653258 11.2508-0.653258 12.5819-0.499934 13.2475-0.193288 13.2475 0.00880915 13.2475 0.172592 13.1883 0.298061 13.0698 0.423485 12.9513 0.534993 12.805 0.632585 12.6307 0.730132 12.4565 0.792841 12.3694 0.820721 12.3694L1.01936 12.3694C1.10299 12.3694 1.14481 12.4216 1.14481 12.5262 1.14481 12.7911 0.991482 13.0472 0.684837 13.2945 0.378191 13.5419 0.0750223 13.6656-0.224666 13.6656-0.607986 13.6656-0.928571 13.5402-1.18642 13.2893-1.44427 13.0384-1.61849 12.7108-1.70908 12.3067-2.21087 12.7387-2.75447 13.0733-3.33989 13.3102-3.9253 13.5471-4.5177 13.6656-5.11708 13.6656ZM-5.0857 13.2475C-3.94274 13.2475-2.84508 12.7771-1.79271 11.8363-1.79972 11.7735-1.80844 11.6951-1.81887 11.601-1.82931 11.5069-1.83453 11.4564-1.83453 11.4494L-1.83453 9.7141C-1.83453 7.77661-2.35724 6.80789-3.40264 6.80789-4.02985 6.80789-4.57867 7.07625-5.0491 7.61289-5.51953 8.14954-5.87323 8.78894-6.11021 9.53112-6.34714 10.2734-6.46561 10.9546-6.46561 11.5749-6.46561 12.0418-6.34714 12.4373-6.11021 12.7614-5.87323 13.0854-5.53173 13.2475-5.0857 13.2475Z" fill="#262626" transform="matrix(1.0089 0 0 1 307.75 261.698)"/><path d="M2.48899 15.8965 2.48899 15.5934C2.48899 15.5724 2.49595 15.5515 2.50987 15.5306L4.27662 13.5757C4.54839 13.283 4.76616 13.0391 4.92994 12.844 5.09373 12.6488 5.25751 12.4241 5.42129 12.1697 5.58508 11.9153 5.714 11.6557 5.80807 11.3909 5.90218 11.1261 5.94924 10.8438 5.94924 10.5441 5.94924 10.2375 5.89175 9.94131 5.77676 9.65556 5.66173 9.36981 5.49096 9.14327 5.26447 8.97601 5.03798 8.80875 4.76444 8.72512 4.44388 8.72512 4.10936 8.72512 3.81141 8.82266 3.55003 9.01782 3.2887 9.21299 3.10577 9.47084 3.00121 9.79144 3.02909 9.78449 3.06743 9.78101 3.11622 9.78101 3.29044 9.78101 3.43678 9.83674 3.55525 9.94827 3.67376 10.0598 3.73302 10.2096 3.73302 10.3977 3.73302 10.565 3.67376 10.7096 3.55525 10.8316 3.43678 10.9536 3.29044 11.0145 3.11622 11.0145 2.942 11.0145 2.7939 10.9518 2.67191 10.8264 2.54996 10.7009 2.48899 10.558 2.48899 10.3977 2.48899 10.112 2.543 9.8437 2.65103 9.5928 2.75907 9.34191 2.91412 9.11892 3.11622 8.92376 3.31832 8.7286 3.54655 8.5788 3.80093 8.47422 4.0553 8.36972 4.32537 8.31747 4.61114 8.31747 5.04321 8.31747 5.44569 8.40979 5.81857 8.59445 6.19141 8.77918 6.4876 9.03877 6.70714 9.37329 6.92665 9.70781 7.03644 10.0981 7.03644 10.5441 7.03644 10.8786 6.96325 11.194 6.81686 11.4902 6.67052 11.7863 6.48583 12.0547 6.26282 12.2952 6.03981 12.5355 5.75234 12.8091 5.40042 13.1157 5.04845 13.4224 4.81672 13.628 4.70521 13.7325L3.40893 14.9766 4.50657 14.9766C5.04319 14.9766 5.4927 14.9713 5.8551 14.9608 6.21751 14.9504 6.40916 14.9347 6.43008 14.9138 6.52067 14.8232 6.61128 14.4748 6.70192 13.8684L7.03644 13.8684 6.71235 15.8965 2.48899 15.8965Z" fill="#262626" transform="matrix(1.0089 0 0 1 307.75 261.698)"/><path d="M-5.63686-6.22428C-6.20831-6.22428-6.71704-6.35845-7.16309-6.62678-7.60915-6.89507-7.95237-7.25923-8.19282-7.7192-8.43321-8.17917-8.55344-8.69835-8.55344-9.27681-8.55344-10.0992-8.32523-10.9094-7.86874-11.7073-7.41224-12.5053-6.80595-13.1552-6.0498-13.657-5.29359-14.1588-4.50084-14.4097-3.67153-14.4097-3.05824-14.4097-2.51985-14.2494-2.05638-13.9288-1.59292-13.6082-1.24097-13.1814-1.00056-12.6482-0.760105-12.115-0.639877-11.5454-0.639877-10.939L-0.619003-9.72635C-0.207806-10.2978 0.140656-10.892 0.426384-11.5088 0.712154-12.1256 0.931696-12.7615 1.08499-13.4165 1.10592-13.4863 1.15121-13.5211 1.22088-13.5211L1.42996-13.5211C1.54147-13.5211 1.59722-13.4654 1.59722-13.3539 1.59722-13.3468 1.59374-13.3294 1.58678-13.3015 1.44044-12.751 1.26271-12.2214 1.05362-11.7125 0.844559-11.2038 0.59717-10.7107 0.311442-10.2334 0.0256692-9.75599-0.284479-9.32211-0.619003-8.93185-0.619003-7.44041-0.444761-6.69469-0.096276-6.69469 0.12674-6.69469 0.30968-6.76093 0.452544-6.89333 0.595408-7.02574 0.720852-7.18952 0.828883-7.38468 0.936914-7.57984 1.00486-7.68087 1.03274-7.68783L1.25226-7.68783C1.34985-7.68783 1.39864-7.62861 1.39864-7.51013 1.39864-7.21046 1.22614-6.92123 0.881136-6.64244 0.536175-6.36367 0.196432-6.22428-0.138091-6.22428-0.570207-6.22428-0.930866-6.36541-1.22008-6.64766-1.50928-6.92993-1.70616-7.29757-1.81071-7.75058-2.37521-7.26271-2.98676-6.88637-3.64537-6.62156-4.30398-6.35671-4.96781-6.22428-5.63686-6.22428ZM-5.60548-6.69469C-4.31618-6.69469-3.08262-7.22438-1.90478-8.28368-1.90478-8.35339-1.91176-8.4405-1.92572-8.54508-1.93964-8.64958-1.94659-8.70531-1.94659-8.71234L-1.94659-10.6672C-1.94659-12.8486-2.53551-13.9393-3.71335-13.9393-4.41723-13.9393-5.034-13.6379-5.56367-13.035-6.09333-12.4321-6.49056-11.7108-6.75537-10.871-7.02025-10.0312-7.15265-9.26638-7.15265-8.57639-7.15265-8.05373-7.02025-7.60948-6.75537-7.24358-6.49056-6.87768-6.10727-6.69469-5.60548-6.69469Z" fill="#262626" transform="matrix(6.17771e-17 -1 1.0089 6.12323e-17 146.628 124.008)"/><path d="M3.31961-3.74673 3.31961-4.19627C4.37894-4.19627 4.9086-4.32869 4.9086-4.59355L4.9086-11.2735C4.46953-11.0575 3.91547-10.9495 3.24642-10.9495L3.24642-11.399C4.28483-11.399 5.06886-11.6708 5.59852-12.2144L5.77622-12.2144C5.8041-12.2144 5.83197-12.2022 5.85985-12.1778 5.88773-12.1534 5.90167-12.1273 5.90167-12.0994L5.90167-4.59355C5.90167-4.32869 6.43133-4.19627 7.49066-4.19627L7.49066-3.74673 3.31961-3.74673Z" fill="#262626" transform="matrix(6.17771e-17 -1 1.0089 6.12323e-17 146.628 124.008)"/></g></svg>